<svg width="680" height="217" viewBox="0 0 680 217" fill="none" xmlns="http://www.w3.org/2000/svg">
<path d="M0 0V217L41.3152 217C61.4606 217 101.751 217 141.855 217C182.052 217 221.968 217 262.165 217C302.269 217 342.559 217 382.663 217C422.86 217 462.776 217 502.973 217C543.077 217 583.367 217 623.471 217C663.668 217 703.584 217 743.781 217C783.885 217 824.175 217 844.321 217L845.71 0C807.645 26.3424 769.592 52.7947 730.619 68.1215C691.551 83.4577 651.679 87.879 611.328 90.3489C571.082 92.9195 530.462 93.6393 490.798 102.038C451.039 110.446 412.33 126.524 372.1 130.204C331.953 133.764 290.389 125.027 250.099 127.157C209.716 129.297 170.721 142.516 129.186 133.109C87.7443 123.693 43.8776 91.8625 21.9333 75.8371L0 59.9217Z" fill="white"/>
</svg>
