<svg width="680" height="217" viewBox="0 0 680 217" fill="none" xmlns="http://www.w3.org/2000/svg">
<path d="M0 59.9217L21.9333 75.8371C43.8776 91.8625 87.7443 123.693 129.186 133.109C170.721 142.516 209.716 129.297 250.099 127.157C290.389 125.027 331.953 133.764 372.1 130.204C412.33 126.524 451.039 110.446 490.798 102.038C530.462 93.6393 571.082 92.9195 611.328 90.3489C651.679 87.879 691.551 83.4577 730.619 68.1215C769.592 52.7947 807.645 26.3424 826.683 13.2262L845.71 8.42782e-06L864.466 188.046L844.321 190.055C824.175 192.064 783.885 196.083 743.781 200.083C703.584 204.093 663.668 208.074 623.471 212.084C583.367 216.084 543.077 220.103 502.973 224.103C462.776 228.112 422.86 232.094 382.663 236.103C342.559 240.103 302.269 244.122 262.165 248.122C221.968 252.132 182.052 256.113 141.855 260.123C101.751 264.123 61.4606 268.142 41.3152 270.151L21.1698 272.16L0 59.9217Z" fill="white"/>
</svg>
