<svg width="1440" height="138" viewBox="0 0 1440 138" fill="none" xmlns="http://www.w3.org/2000/svg">
<path d="M0 0L34.4 11.6549C68.8 23.3813 137.6 46.6912 206.08 55.4145C274.72 64.1378 342.88 58.1316 411.52 59.3471C480 60.5627 548.8 68.857 617.28 69.143C685.92 69.3575 754.08 61.4922 822.72 58.6321C891.2 55.772 960 57.9171 1028.48 58.8466C1097.12 59.8477 1165.28 59.5617 1233.92 52.1969C1302.4 44.8321 1371.2 30.2456 1405.6 23.0238L1440 15.7306V138H1405.6C1371.2 138 1302.4 138 1233.92 138C1165.28 138 1097.12 138 1028.48 138C960 138 891.2 138 822.72 138C754.08 138 685.92 138 617.28 138C548.8 138 480 138 411.52 138C342.88 138 274.72 138 206.08 138C137.6 138 68.8 138 34.4 138H0V0Z" fill="#0066FF"/>
</svg>
