<svg width="115" height="98" viewBox="0 0 115 98" fill="none" xmlns="http://www.w3.org/2000/svg">
<path fill-rule="evenodd" clip-rule="evenodd" d="M0 11.9371C0 5.34443 5.22917 0 11.6797 0H103.32C109.771 0 115 5.34442 115 11.9371V85.3962C115 91.9889 109.771 97.3333 103.32 97.3333H11.6797C5.22918 97.3333 0 91.9889 0 85.3962V11.9371ZM11.6797 5.50943C8.20634 5.50943 5.39063 8.3872 5.39063 11.9371V85.3962C5.39063 88.9461 8.20634 91.8239 11.6797 91.8239H103.32C106.794 91.8239 109.609 88.9461 109.609 85.3962V11.9371C109.609 8.3872 106.794 5.50943 103.32 5.50943H11.6797Z" fill="#B8B8B8"/>
<ellipse cx="26.9531" cy="25.7107" rx="11.6797" ry="11.9371" fill="#B8B8B8"/>
<path d="M15.2734 79.1382V69.5475C15.2734 69.1118 15.4441 68.6934 15.7488 68.3819L33.0047 50.7457C33.6368 50.0997 34.6684 50.0752 35.3305 50.6903L42.8502 57.6771C43.5056 58.286 44.5248 58.2689 45.1594 57.6384L75.1758 27.8126C75.8323 27.1603 76.8946 27.1678 77.5418 27.8293L101.048 51.8536C101.353 52.1651 101.523 52.5835 101.523 53.0192V79.1382C101.523 80.0587 100.777 80.8049 99.8568 80.8049H16.9401C16.0196 80.8049 15.2734 80.0587 15.2734 79.1382Z" fill="#B8B8B8"/>
</svg>
